<svg xmlns="http://www.w3.org/2000/svg" viewBox="0 0 240 240" fill="currentColor">
	<path fill="#5f2d89" d="M6 13.799h30.6l85.8 188.4 85.2-188.4h30l-100.8 223.2h-30L6 13.799Z" />
	<path fill="#d1d3d4" d="M139.2 125.999c0 9-7.2 16.2-16.2 16.2s-16.2-7.2-16.2-16.2 7.2-16.2 16.2-16.2 16.2 7.2 16.2 16.2Z" />
	<path fill="#bcbec0" d="M96 97.799c7.8-4.2 17.4-6.6 27-6.6 9.6 0 18.6 2.4 26.4 6.6l7.2-16.2c-10.2-5.4-21.6-7.8-34.2-7.8-12.6 0-24 3-34.2 8.4l7.8 15.6Z" />
	<path fill="#a7a9ac" d="M80.4 64.2c12.6-6 27-9.6 42-9.6s29.4 3.6 42 9.6l7.2-16.2c-15-7.2-31.8-11.4-49.2-11.4-18 0-34.8 4.2-49.8 11.4l7.8 16.2Z" />
	<path fill="#939598" d="M64.8 30.6c17.4-8.4 37.2-13.2 57.6-13.2s40.2 4.8 57.6 13.2l7.2-16.2C167.4 4.8 145.8 0 122.4 0S76.8 5.4 57.6 15l7.2 15.6Z" />
</svg>
